<svg width="62" height="61" viewBox="0 0 62 61" fill="none" xmlns="http://www.w3.org/2000/svg">
<path d="M30.6206 -0.000244141C13.7487 -0.000244141 0 13.6836 0 30.4761C0 47.2686 13.7487 60.9524 30.6206 60.9524C47.4926 60.9524 61.2413 47.2686 61.2413 30.4761C61.2413 13.6836 47.4926 -0.000244141 30.6206 -0.000244141ZM30.6206 21.577C29.3652 21.577 28.3241 20.5713 28.3241 19.2913C28.3241 18.0418 29.3652 17.0056 30.6206 17.0056C31.9067 17.0056 32.9172 18.0418 32.9172 19.2913C32.9172 20.5713 31.9067 21.577 30.6206 21.577ZM32.9172 41.3866C32.9172 42.6666 31.8761 43.6724 30.6206 43.6724C29.3652 43.6724 28.3241 42.6666 28.3241 41.3866V27.1846C28.3241 25.9046 29.3652 24.8989 30.6206 24.8989C31.8761 24.8989 32.9172 25.9046 32.9172 27.1846V41.3866Z" fill="#EC2224"/>
</svg>
