<svg width="24" height="27" viewBox="0 0 24 27" fill="none" xmlns="http://www.w3.org/2000/svg">
<path d="M20.9386 25.25V6H16.4518V0.75H2.99123V25.25H0V27H10.4693V21.75H13.4605V27H23.9298V25.25H20.9386ZM8.97368 18.25H5.98246V14.75H8.97368V18.25ZM8.97368 13H5.98246V9.5H8.97368V13ZM8.97368 7.75H5.98246V4.25H8.97368V7.75ZM13.4605 18.25H10.4693V14.75H13.4605V18.25ZM13.4605 13H10.4693V9.5H13.4605V13ZM13.4605 7.75H10.4693V4.25H13.4605V7.75ZM19.443 18.25H16.4518V14.75H19.443V18.25ZM19.443 13H16.4518V9.5H19.443V13Z" fill="#FF1C1C"/>
</svg>
