<svg width="20" height="24" viewBox="0 0 20 24" fill="none" xmlns="http://www.w3.org/2000/svg">
<path fill-rule="evenodd" clip-rule="evenodd" d="M2.72699 0.76529C2.92959 0.503212 3.17286 0.299907 3.44069 0.168848C3.70852 0.0377897 3.9948 -0.0180293 4.28054 0.00509005C4.56628 0.0282094 4.84496 0.129739 5.09813 0.302951C5.35129 0.476164 5.57315 0.717103 5.749 1.0098L7.82736 4.46896C8.20829 5.10349 8.34261 5.93003 8.19208 6.71006L7.55874 9.99521C7.52599 10.1654 7.52776 10.3436 7.56387 10.5126C7.59998 10.6816 7.66921 10.8356 7.76483 10.9598L10.6097 14.6454C10.7056 14.7696 10.8247 14.8594 10.9554 14.9062C11.086 14.953 11.2238 14.9551 11.3554 14.9124L13.8899 14.0919C14.187 13.9957 14.4972 13.9882 14.7968 14.07C15.0965 14.1519 15.3779 14.321 15.6197 14.5644L18.2898 17.2555C19.2496 18.2231 19.3376 20.0607 18.4785 21.1722L17.2813 22.7233C16.4245 23.8333 15.1439 24.3209 13.9501 23.7763C10.8947 22.3836 8.12061 20.1174 5.83353 17.146C3.54014 14.1834 1.79099 10.5899 0.715793 6.63206C0.296648 5.08699 0.672952 3.42641 1.52977 2.31636L2.72699 0.76529Z" fill="#FF1C1C"/>
</svg>
